HIERARCHY
ROOT Hips
{
	OFFSET 0.000000 0.000000 0.000000
	CHANNELS 6 Xposition Yposition Zposition Xrotation Yrotation Zrotation
	JOINT LeftUpLeg_virtual
	{
		OFFSET 0.000000 0.000000 0.000000
		CHANNELS 3 Xrotation Yrotation Zrotation
		JOINT LeftUpLeg
		{
			OFFSET 15.427100 -6.655098 0.678600
			CHANNELS 3 Xrotation Yrotation Zrotation
			JOINT LeftLeg
			{
				OFFSET 4.081073 -39.591068 13.024000
				CHANNELS 3 Xrotation Yrotation Zrotation
				JOINT LeftFoot
				{
					OFFSET -4.081074 -37.707932 -15.979700
					CHANNELS 3 Xrotation Yrotation Zrotation
					JOINT LeftToeBase
					{
						OFFSET 5.346399 -15.068900 20.645000
						CHANNELS 3 Xrotation Yrotation Zrotation
						JOINT LeftToe_End
						{
							OFFSET 2.754700 0.931300 11.300900
							CHANNELS 3 Xrotation Yrotation Zrotation
							End Site
							{
								OFFSET 0 0 0
							}
						}
					}
				}
			}
		}
	}
	JOINT RightUpLeg_virtual
	{
		OFFSET 0.000000 0.000000 0.000000
		CHANNELS 3 Xrotation Yrotation Zrotation
		JOINT RightUpLeg
		{
			OFFSET -15.569500 -6.655098 0.678600
			CHANNELS 3 Xrotation Yrotation Zrotation
			JOINT RightLeg
			{
				OFFSET -4.081825 -39.591045 13.023800
				CHANNELS 3 Xrotation Yrotation Zrotation
				JOINT RightFoot
				{
					OFFSET 4.081824 -37.707954 -15.979600
					CHANNELS 3 Xrotation Yrotation Zrotation
					JOINT RightToeBase
					{
						OFFSET -5.346400 -15.068900 20.645000
						CHANNELS 3 Xrotation Yrotation Zrotation
						JOINT RightToe_End
						{
							OFFSET -2.754700 0.931300 11.300900
							CHANNELS 3 Xrotation Yrotation Zrotation
							End Site
							{
								OFFSET 0 0 0
							}
						}
					}
				}
			}
		}
	}
	JOINT Spine_virtual
	{
		OFFSET 0.000000 0.000000 0.000000
		CHANNELS 3 Xrotation Yrotation Zrotation
		JOINT Spine
		{
			OFFSET -0.279200 12.230698 -2.892100
			CHANNELS 3 Xrotation Yrotation Zrotation
			JOINT Spine1
			{
				OFFSET -0.232667 10.192268 -1.242267
				CHANNELS 3 Xrotation Yrotation Zrotation
				JOINT Spine1_split
				{
					OFFSET -0.232667 10.192268 -1.242267
					CHANNELS 3 Xrotation Yrotation Zrotation
					JOINT Spine2
					{
						OFFSET -0.232667 10.192268 -1.242267
						CHANNELS 3 Xrotation Yrotation Zrotation
						JOINT Neck_virtual
						{
							OFFSET 0.000000 0.000000 0.000000
							CHANNELS 3 Xrotation Yrotation Zrotation
							JOINT Neck
							{
								OFFSET -0.418800 17.814194 8.416900
								CHANNELS 3 Xrotation Yrotation Zrotation
								JOINT Head
								{
									OFFSET 0.000000 7.031097 3.806800
									CHANNELS 3 Xrotation Yrotation Zrotation
									JOINT HeadTop_End
									{
										OFFSET 0.000000 24.646606 12.978600
										CHANNELS 3 Xrotation Yrotation Zrotation
										End Site
										{
											OFFSET 0 0 0
										}
									}
								}
							}
						}
						JOINT LeftShoulder_virtual
						{
							OFFSET 0.000000 0.000000 0.000000
							CHANNELS 3 Xrotation Yrotation Zrotation
							JOINT LeftShoulder
							{
								OFFSET 8.476499 7.247704 -3.868750
								CHANNELS 3 Xrotation Yrotation Zrotation
								JOINT LeftShoulder_split
								{
									OFFSET 8.476499 7.247704 -3.868750
									CHANNELS 3 Xrotation Yrotation Zrotation
									JOINT LeftArm
									{
										OFFSET 9.308998 -2.777710 0.208600
										CHANNELS 3 Xrotation Yrotation Zrotation
										JOINT LeftForeArm
										{
											OFFSET 29.972298 0.000000 0.000000
											CHANNELS 3 Xrotation Yrotation Zrotation
											JOINT LeftHand
											{
												OFFSET 26.026505 0.000000 0.000000
												CHANNELS 3 Xrotation Yrotation Zrotation
												End Site
												{
													OFFSET 0 0 0
												}
											}
										}
									}
								}
							}
						}
						JOINT RightShoulder_virtual
						{
							OFFSET 0.000000 0.000000 0.000000
							CHANNELS 3 Xrotation Yrotation Zrotation
							JOINT RightShoulder
							{
								OFFSET -7.570500 7.247704 -3.868750
								CHANNELS 3 Xrotation Yrotation Zrotation
								JOINT RightShoulder_split
								{
									OFFSET -7.570500 7.247704 -3.868750
									CHANNELS 3 Xrotation Yrotation Zrotation
									JOINT RightArm
									{
										OFFSET -9.308998 -2.777710 0.208500
										CHANNELS 3 Xrotation Yrotation Zrotation
										JOINT RightForeArm
										{
											OFFSET -29.972300 0.000000 0.000000
											CHANNELS 3 Xrotation Yrotation Zrotation
											JOINT RightHand
											{
												OFFSET -26.026505 0.000000 0.000000
												CHANNELS 3 Xrotation Yrotation Zrotation
												End Site
												{
													OFFSET 0 0 0
												}
											}
										}
									}
								}
							}
						}
					}
				}
			}
		}
	}
}
MOTION
Frames: 6
Frame Time: 0.03333333
0.190734 75.645805 -2.955681 0.000000 0.000000 0.000000 -14.106247 4.441282 -0.223178 -18.293777 -3.900096 17.148045 56.015051 -1.853695 -0.410165 -22.838993 -0.431895 -14.110442 -0.000078 -0.000000 0.000001 0.000000 0.000000 0.000000 -14.106247 4.441282 -0.223178 -12.311045 -8.596146 -18.452634 55.363608 1.752835 0.303701 -27.403950 -5.066995 12.941147 -0.000045 0.000003 0.000001 0.000000 0.000000 0.000000 -14.106247 4.441282 -0.223178 20.016339 0.036964 0.683602 6.967313 -0.338753 0.679832 0.000000 0.000000 0.000000 0.000000 0.000000 0.000000 6.967508 -0.337003 0.677442 -12.249464 -1.248219 -0.496002 -16.116683 -1.754210 -0.002246 0.000000 0.000000 0.000000 6.967508 -0.337003 0.677442 3.082220 -9.945128 -6.811324 0.000000 0.000000 0.000000 -13.959246 -7.908229 -60.295237 69.634195 -63.509121 71.597041 0.000000 0.000000 0.000000 6.967508 -0.337003 0.677442 8.709551 -2.418517 18.823131 0.000000 0.000000 0.000000 -21.494477 12.934322 56.855499 76.344180 65.517019 -70.724601 0.000000 0.000000 0.000000 
0.238631 75.478027 -2.841145 0.000000 0.000000 0.000000 -14.124893 4.540738 -0.301183 -18.376043 -3.974329 17.267282 56.380056 -1.860114 -0.413835 -23.116611 -0.539575 -14.125256 -0.000078 -0.000000 0.000001 0.000000 0.000000 0.000000 -14.124893 4.540738 -0.301183 -12.227744 -8.657286 -18.467937 55.569528 1.771846 0.308958 -27.640845 -5.098615 13.025077 -0.000045 0.000003 0.000001 0.000000 0.000000 0.000000 -14.124893 4.540738 -0.301183 20.011269 0.052396 0.739626 6.966029 -0.327721 0.719249 0.000000 0.000000 0.000000 0.000000 0.000000 0.000000 6.966379 -0.324709 0.716456 -12.555791 -1.289426 -0.611312 -15.824413 -1.789684 -0.122986 0.000000 0.000000 0.000000 6.966379 -0.324709 0.716456 2.764794 -10.227420 -8.150477 0.000000 0.000000 0.000000 -14.313654 -7.958068 -56.721849 68.594374 -63.723356 67.966393 0.000000 0.000000 0.000000 6.966379 -0.324709 0.716456 8.718468 -2.429202 18.921154 0.000000 0.000000 0.000000 -21.496053 12.656107 56.308288 77.004126 65.942567 -71.153188 0.000000 0.000000 0.000000 
0.304518 75.304321 -2.697060 0.000000 0.000000 0.000000 -14.170699 4.836882 -0.403137 -18.454563 -4.304778 17.307722 56.793641 -1.862613 -0.416905 -23.404675 -0.585866 -14.137342 -0.000078 -0.000000 0.000001 0.000000 0.000000 0.000000 -14.170699 4.836882 -0.403137 -11.981421 -8.845232 -18.455070 55.721677 1.798722 0.317017 -27.930493 -5.242523 13.132815 -0.000045 0.000002 0.000001 0.000000 0.000000 0.000000 -14.170699 4.836882 -0.403137 19.990249 0.085003 0.830212 6.937509 -0.293120 0.836672 0.000000 0.000000 0.000000 0.000000 0.000000 0.000000 6.937986 -0.289780 0.834064 -12.503197 -1.468269 -0.642171 -15.970663 -1.831689 -0.574226 0.000000 0.000000 0.000000 6.937986 -0.289780 0.834064 2.431004 -10.738113 -9.036974 0.000000 0.000000 0.000000 -14.974693 -8.818246 -52.449313 66.100078 -62.633709 61.042405 0.000000 0.000000 0.000000 6.937986 -0.289780 0.834064 8.767402 -2.495621 19.020518 0.000000 0.000000 0.000000 -21.838840 11.822597 55.109839 78.559080 66.918252 -72.239544 0.000000 0.000000 0.000000 
0.372137 75.254128 -2.503120 0.000000 0.000000 0.000000 -14.236093 5.528721 -0.585295 -18.480607 -5.045571 17.274751 57.064147 -1.844701 -0.413803 -23.578322 -0.615759 -14.153672 -0.000078 -0.000000 0.000001 0.000000 0.000000 0.000000 -14.236093 5.528721 -0.585295 -11.402061 -9.511069 -18.366992 55.529779 1.828632 0.326909 -28.189895 -5.421977 13.230017 -0.000045 0.000003 0.000001 0.000000 0.000000 0.000000 -14.236093 5.528721 -0.585295 19.928872 0.094082 1.040126 6.839932 -0.351177 1.068726 0.000000 0.000000 0.000000 0.000000 0.000000 0.000000 6.840728 -0.346985 1.066124 -11.868277 -1.759281 -0.434147 -16.871867 -1.816975 -1.274529 0.000000 0.000000 0.000000 6.840728 -0.346985 1.066124 2.111461 -11.543111 -9.212453 0.000000 0.000000 0.000000 -15.811278 -10.260034 -48.386631 61.977007 -60.070680 50.772126 0.000000 0.000000 0.000000 6.840728 -0.346985 1.066124 8.956365 -2.757028 19.125563 0.000000 0.000000 0.000000 -23.419079 9.145778 51.563588 83.811400 69.708494 -76.139267 0.000000 0.000000 0.000000 
0.449876 75.482376 -2.221539 0.000000 0.000000 0.000000 -14.242276 7.038454 -0.842686 -18.494948 -6.622860 16.948711 56.966660 -1.786139 -0.398106 -23.447758 -0.564269 -14.151560 -0.000078 0.000001 0.000001 0.000000 0.000000 0.000000 -14.242276 7.038454 -0.842686 -10.264969 -11.114406 -18.199684 54.625179 1.863204 0.340725 -28.351159 -5.688315 13.324126 -0.000045 0.000003 0.000001 0.000000 0.000000 0.000000 -14.242276 7.038454 -0.842686 19.832407 -0.005866 1.409903 6.679609 -0.664823 1.500897 0.000000 0.000000 0.000000 0.000000 0.000000 0.000000 6.680944 -0.660218 1.497984 -11.358412 -2.140448 -0.267526 -17.521144 -1.927238 -1.898977 0.000000 0.000000 0.000000 6.680944 -0.660218 1.497984 1.789834 -12.847866 -9.248320 0.000000 0.000000 0.000000 -16.587437 -11.925819 -44.313523 58.095909 -56.142362 39.239068 0.000000 0.000000 0.000000 6.680944 -0.660218 1.497984 9.320056 -3.255912 19.377696 0.000000 0.000000 0.000000 -26.545510 4.429803 44.221387 98.063656 74.446712 -87.427302 0.000000 0.000000 0.000000 
0.561398 76.061485 -1.823818 0.000000 0.000000 0.000000 -14.053653 9.577180 -0.857027 -18.648904 -9.057650 15.872391 56.264496 -1.681978 -0.366820 -22.837467 -0.443126 -14.050822 -0.000078 0.000001 0.000001 0.000000 0.000000 0.000000 -14.053653 9.577180 -0.857027 -8.635279 -13.698350 -18.241525 52.937808 1.902678 0.361403 -28.422719 -6.158607 13.502680 -0.000045 0.000003 0.000001 0.000000 0.000000 0.000000 -14.053653 9.577180 -0.857027 19.730663 -0.333143 1.853639 6.504437 -1.431120 1.882393 0.000000 0.000000 0.000000 0.000000 0.000000 0.000000 6.507061 -1.425646 1.878501 -11.121215 -2.676901 0.656103 -18.078315 -1.819530 -2.833730 0.000000 0.000000 0.000000 6.507061 -1.425646 1.878501 1.588963 -13.978035 -8.328294 0.000000 0.000000 0.000000 -17.056992 -13.550102 -41.040271 56.173269 -51.841925 28.627811 0.000000 0.000000 0.000000 6.507061 -1.425646 1.878501 9.792471 -3.914209 19.480528 0.000000 0.000000 0.000000 -31.132685 -0.339094 35.023444 124.315508 78.102045 -109.822072 0.000000 0.000000 0.000000 
